
        <svg xmlns="http://www.w3.org/2000/svg" xmlns:xlink="http://www.w3.org/1999/xlink" version="1.1" width="3169.786695050438" 
        height="3192.4728163977497" viewBox="0 0 3169.786695050438 3192.4728163977497">
			<rect fill="#1e1b1d" width="3169.786695050438" height="3192.4728163977497"/>
			<g transform="scale(9.623640819887477) translate(10, 10)">
				<defs id="SvgjsDefs1335"><linearGradient id="SvgjsLinearGradient1344"><stop id="SvgjsStop1345" stop-color="#8f5e25" offset="0"></stop><stop id="SvgjsStop1346" stop-color="#fbf4a1" offset="0.5"></stop><stop id="SvgjsStop1347" stop-color="#8f5e25" offset="1"></stop></linearGradient><linearGradient id="SvgjsLinearGradient1348"><stop id="SvgjsStop1349" stop-color="#8f5e25" offset="0"></stop><stop id="SvgjsStop1350" stop-color="#fbf4a1" offset="0.5"></stop><stop id="SvgjsStop1351" stop-color="#8f5e25" offset="1"></stop></linearGradient><linearGradient id="SvgjsLinearGradient1352"><stop id="SvgjsStop1353" stop-color="#8f5e25" offset="0"></stop><stop id="SvgjsStop1354" stop-color="#fbf4a1" offset="0.5"></stop><stop id="SvgjsStop1355" stop-color="#8f5e25" offset="1"></stop></linearGradient><linearGradient id="SvgjsLinearGradient1356"><stop id="SvgjsStop1357" stop-color="#8f5e25" offset="0"></stop><stop id="SvgjsStop1358" stop-color="#fbf4a1" offset="0.5"></stop><stop id="SvgjsStop1359" stop-color="#8f5e25" offset="1"></stop></linearGradient></defs><g id="SvgjsG1336" featureKey="rootContainer" transform="matrix(6.265188199839146,0,0,6.265188199839146,0,0.039189629707424664)" fill="url(#SvgjsLinearGradient1344)"><path xmlns="http://www.w3.org/2000/svg" d="M47.09 20.31a22.84 22.84 0 0 0-44.75 0l-.28-.06a23.12 23.12 0 0 1 45.3 0zM24.71 48A23.19 23.19 0 0 1 2.06 29.54l.28-.06a22.84 22.84 0 0 0 44.75 0l.28.06A23.18 23.18 0 0 1 24.71 48z"></path><path xmlns="http://www.w3.org/2000/svg" d="M49.09 21.93h-6.26v-.56h5.93a24.32 24.32 0 0 0-48.12 0h5.93v.56H0v-.32a24.88 24.88 0 0 1 49.33 0v.32h-.28zM24.71 49.75A24.93 24.93 0 0 1 0 28.15v-.32h6.58v.56H.65a24.32 24.32 0 0 0 48.12 0h-5.93v-.56h6.54v.32a24.93 24.93 0 0 1-24.67 21.6z"></path></g><g id="SvgjsG1337" featureKey="dZL0lc-0" transform="matrix(1.4863258026159332,0,0,1.4863258026159332,81.33739677365696,41.94351660312286)" fill="url(#SvgjsLinearGradient1348)"><path xmlns="http://www.w3.org/2000/svg" d="M93.474,35.84c0.007-0.05,0.027-0.097,0.027-0.147c0-0.013-0.007-0.024-0.008-0.037c-0.002-0.061-0.021-0.117-0.035-0.177  c-0.016-0.069-0.029-0.136-0.06-0.201c-0.007-0.014-0.005-0.029-0.013-0.043c-0.024-0.046-0.065-0.076-0.096-0.117  c-0.031-0.042-0.049-0.091-0.087-0.129L82.588,24.526c-0.021-0.021-0.049-0.028-0.071-0.046c-0.018-0.015-0.032-0.033-0.052-0.046  c-0.015-0.011-0.024-0.026-0.04-0.036c-0.031-0.02-0.069-0.029-0.103-0.045c-0.047-0.022-0.091-0.042-0.14-0.057  c-0.027-0.008-0.05-0.026-0.078-0.032l-17.907-4.018c-0.071-0.016-0.146-0.024-0.219-0.024H36.023c-0.074,0-0.147,0.008-0.219,0.024  l-17.908,4.018c-0.005,0.001-0.008,0.004-0.013,0.005s-0.008,0-0.013,0c-0.021,0.005-0.037,0.021-0.058,0.028  c-0.047,0.015-0.089,0.034-0.134,0.056c-0.045,0.022-0.091,0.042-0.132,0.071c-0.029,0.021-0.053,0.044-0.079,0.067  c-0.017,0.015-0.039,0.02-0.055,0.036L6.798,34.989c-0.044,0.044-0.066,0.1-0.101,0.149c-0.032,0.044-0.074,0.079-0.098,0.129  c-0.004,0.008-0.003,0.018-0.006,0.026c-0.004,0.009-0.013,0.016-0.017,0.025c-0.007,0.017-0.004,0.035-0.01,0.051  c-0.017,0.047-0.02,0.096-0.029,0.145c-0.01,0.054-0.031,0.105-0.032,0.159c0,0.007-0.004,0.014-0.004,0.021  c0,0.007,0.004,0.014,0.004,0.021c0.001,0.051,0.02,0.101,0.028,0.152c0.011,0.061,0.012,0.124,0.034,0.182  c0.02,0.054,0.058,0.1,0.088,0.15c0.037,0.063,0.067,0.127,0.118,0.181c0.007,0.007,0.009,0.017,0.016,0.024  c0,0,0.001,0,0.001,0.001l42.499,43.077c0.001,0.001,0.002,0.001,0.002,0.002c0.002,0.002,0.004,0.004,0.006,0.006  c0,0,0,0.001,0.001,0.002c0.013,0.013,0.029,0.017,0.042,0.028s0.02,0.028,0.034,0.04c0.041,0.033,0.089,0.048,0.134,0.073  c0.028,0.017,0.05,0.039,0.08,0.052c0.01,0.005,0.019,0.013,0.029,0.018c0.003,0.001,0.005,0.002,0.007,0.003  c0.009,0.004,0.018,0.004,0.027,0.007c0.113,0.042,0.231,0.067,0.349,0.067c0,0,0,0,0,0l0,0h0c0,0,0,0,0,0  c0.116,0,0.232-0.025,0.344-0.066c0.01-0.004,0.021-0.003,0.032-0.008c0.002-0.001,0.005-0.002,0.007-0.003  c0.009-0.004,0.016-0.01,0.024-0.014c0.027-0.012,0.048-0.034,0.075-0.049c0.042-0.023,0.086-0.037,0.125-0.066  c0.018-0.013,0.024-0.032,0.041-0.047s0.038-0.02,0.054-0.035c0.001-0.001,0.001-0.002,0.001-0.002  c0.003-0.002,0.005-0.004,0.007-0.007c0,0,0.001,0,0.002-0.001l42.501-43.08c0.011-0.011,0.015-0.026,0.024-0.038  c0.05-0.055,0.082-0.117,0.118-0.18c0.029-0.052,0.063-0.099,0.082-0.154C93.46,35.969,93.464,35.905,93.474,35.84z M49,46.334  v29.494l-24.242-31.67L49,46.334z M24.773,42.151l11.204-11.42l11.648,13.471L24.773,42.151z M51,46.338l25.493-2.184L51,75.934  V46.338z M52.366,44.213l11.69-13.519l12.343,11.46L52.366,44.213z M90.825,35.453L80.078,41.12l2.459-13.835L90.825,35.453z   M78.072,40.978L66.051,29.816l14.588-3.272L78.072,40.978z M50,43.89L38.21,30.256h23.58L50,43.89z M23.114,40.986L19.482,26.57  l14.569,3.269L23.114,40.986z M17.573,27.178l3.516,13.953L9.214,35.417L17.573,27.178z M21.931,43.756L39.52,66.732L12.258,39.101  L21.931,43.756z M79.386,43.747l7.862-4.146L62.974,64.205L79.386,43.747z M36.134,22.221h27.734l13.449,3.018l-13.45,3.018H36.134  l-13.451-3.018L36.134,22.221z"></path></g><g id="SvgjsG1338" featureKey="u029BI-0" transform="matrix(1.1699071693848724,0,0,1.1699071693848724,54.83009283061513,174.19113839978655)" fill="url(#SvgjsLinearGradient1352)"><path d="M7.92 20.28 q-3.38 0 -5.15 -1.88 t-1.77 -5.34 q0 -1.72 0.54 -3.07 t1.48 -2.28 t2.24 -1.41 t2.82 -0.48 q0.88 0 1.6 0.13 t1.26 0.3 t0.9 0.35 t0.52 0.28 l-0.9 2.52 q-0.64 -0.34 -1.49 -0.58 t-1.93 -0.24 q-0.72 0 -1.41 0.24 t-1.22 0.77 t-0.85 1.37 t-0.32 2.04 q0 0.96 0.21 1.79 t0.68 1.43 t1.23 0.95 t1.84 0.35 q0.68 0 1.22 -0.08 t0.96 -0.19 t0.74 -0.25 t0.58 -0.26 l0.86 2.5 q-0.66 0.4 -1.86 0.72 t-2.78 0.32 z M23.82 17.32 l0 2.68 l-9.26 0 l0 -13.86 l3.12 0 l0 11.18 l6.14 0 z M25.82 6.140000000000001 l3.12 0 l0 13.86 l-3.12 0 l0 -13.86 z M32.14 20 l0 -13.86 l9.28 0 l0 2.62 l-6.16 0 l0 2.9 l5.48 0 l0 2.62 l-5.48 0 l0 5.72 l-3.12 0 z M43.62 20 l0 -13.86 l9.28 0 l0 2.62 l-6.16 0 l0 2.9 l5.48 0 l0 2.62 l-5.48 0 l0 5.72 l-3.12 0 z M55.1 20 l0 -13.86 l9.36 0 l0 2.62 l-6.24 0 l0 2.72 l5.54 0 l0 2.56 l-5.54 0 l0 3.34 l6.7 0 l0 2.62 l-9.82 0 z M78.34 20.28 q-3.38 0 -5.15 -1.88 t-1.77 -5.34 q0 -1.72 0.54 -3.07 t1.48 -2.28 t2.24 -1.41 t2.82 -0.48 q0.88 0 1.6 0.13 t1.26 0.3 t0.9 0.35 t0.52 0.28 l-0.9 2.52 q-0.64 -0.34 -1.49 -0.58 t-1.93 -0.24 q-0.72 0 -1.41 0.24 t-1.22 0.77 t-0.85 1.37 t-0.32 2.04 q0 0.96 0.21 1.79 t0.68 1.43 t1.23 0.95 t1.84 0.35 q0.68 0 1.22 -0.08 t0.96 -0.19 t0.74 -0.25 t0.58 -0.26 l0.86 2.5 q-0.66 0.4 -1.86 0.72 t-2.78 0.32 z M94.24 17.32 l0 2.68 l-9.26 0 l0 -13.86 l3.12 0 l0 11.18 l6.14 0 z M96.24 20 l0 -13.86 l9.36 0 l0 2.62 l-6.24 0 l0 2.72 l5.54 0 l0 2.56 l-5.54 0 l0 3.34 l6.7 0 l0 2.62 l-9.82 0 z M117.64 20 q-0.22 -0.72 -0.49 -1.48 t-0.53 -1.52 l-5.4 0 q-0.26 0.76 -0.53 1.52 t-0.49 1.48 l-3.24 0 q0.78 -2.24 1.48 -4.14 t1.37 -3.58 t1.32 -3.19 t1.35 -2.95 l2.98 0 q0.68 1.44 1.34 2.95 t1.33 3.19 t1.37 3.58 t1.48 4.14 l-3.34 0 z M113.9 9.28 q-0.1 0.3 -0.3 0.82 t-0.46 1.2 t-0.57 1.5 t-0.63 1.72 l3.94 0 q-0.32 -0.9 -0.62 -1.72 t-0.57 -1.5 t-0.47 -1.2 t-0.32 -0.82 z M132.08 20 q-1.34 -2.38 -2.9 -4.7 t-3.32 -4.38 l0 9.08 l-3.08 0 l0 -13.86 l2.54 0 q0.66 0.66 1.46 1.62 t1.63 2.05 t1.65 2.26 t1.54 2.25 l0 -8.18 l3.1 0 l0 13.86 l-2.62 0 z M137.9 6.140000000000001 l3.12 0 l0 13.86 l-3.12 0 l0 -13.86 z M153.52 20 q-1.34 -2.38 -2.9 -4.7 t-3.32 -4.38 l0 9.08 l-3.08 0 l0 -13.86 l2.54 0 q0.66 0.66 1.46 1.62 t1.63 2.05 t1.65 2.26 t1.54 2.25 l0 -8.18 l3.1 0 l0 13.86 l-2.62 0 z M166.10000000000002 8.54 q-2.18 0 -3.15 1.21 t-0.97 3.31 q0 1.02 0.24 1.85 t0.72 1.43 t1.2 0.93 t1.68 0.33 q0.52 0 0.89 -0.02 t0.65 -0.08 l0 -4.82 l3.12 0 l0 6.86 q-0.56 0.22 -1.8 0.47 t-3.06 0.25 q-1.56 0 -2.83 -0.48 t-2.17 -1.4 t-1.39 -2.26 t-0.49 -3.06 q0 -1.74 0.54 -3.08 t1.48 -2.27 t2.21 -1.41 t2.71 -0.48 q0.98 0 1.77 0.13 t1.36 0.3 t0.94 0.35 t0.53 0.28 l-0.9 2.5 q-0.64 -0.34 -1.47 -0.59 t-1.81 -0.25 z"></path></g><g id="SvgjsG1339" featureKey="u029BI-1" transform="matrix(2.131081726773846,0,0,2.131081726773846,54.42299848568482,195.5971039843518)" fill="url(#SvgjsLinearGradient1356)"><path d="M5.38 17.62 q0.66 0 1.09 -0.11 t0.69 -0.3 t0.36 -0.45 t0.1 -0.58 q0 -0.68 -0.64 -1.13 t-2.2 -0.97 q-0.68 -0.24 -1.36 -0.55 t-1.22 -0.78 t-0.88 -1.14 t-0.34 -1.63 t0.36 -1.73 t1.02 -1.31 t1.6 -0.83 t2.12 -0.29 q1.4 0 2.42 0.3 t1.68 0.66 l-0.9 2.46 q-0.58 -0.3 -1.29 -0.53 t-1.71 -0.23 q-1.12 0 -1.61 0.31 t-0.49 0.95 q0 0.38 0.18 0.64 t0.51 0.47 t0.76 0.38 t0.95 0.35 q1.08 0.4 1.88 0.79 t1.33 0.91 t0.79 1.22 t0.26 1.7 q0 1.94 -1.36 3.01 t-4.1 1.07 q-0.92 0 -1.66 -0.11 t-1.31 -0.27 t-0.98 -0.34 t-0.69 -0.34 l0.88 -2.48 q0.62 0.34 1.53 0.61 t2.23 0.27 z M13.24 20 l0 -13.86 l9.36 0 l0 2.62 l-6.24 0 l0 2.72 l5.54 0 l0 2.56 l-5.54 0 l0 3.34 l6.7 0 l0 2.62 l-9.82 0 z M29.42 5.98 q3.12 0 4.78 1.11 t1.66 3.45 q0 1.46 -0.67 2.37 t-1.93 1.43 q0.42 0.52 0.88 1.19 t0.91 1.4 t0.87 1.52 t0.78 1.55 l-3.5 0 q-0.38 -0.68 -0.77 -1.38 t-0.8 -1.36 t-0.81 -1.25 t-0.8 -1.07 l-1.54 0 l0 5.06 l-3.12 0 l0 -13.66 q1.02 -0.2 2.11 -0.28 t1.95 -0.08 z M29.6 8.64 q-0.34 0 -0.61 0.02 t-0.51 0.04 l0 3.76 l0.88 0 q1.76 0 2.52 -0.44 t0.76 -1.5 q0 -1.02 -0.77 -1.45 t-2.27 -0.43 z M42.82 20 q-0.82 -1.74 -1.62 -3.62 t-1.52 -3.72 t-1.33 -3.52 t-1.05 -3 l3.44 0 q0.4 1.2 0.87 2.59 t0.96 2.77 t0.95 2.64 t0.86 2.18 q0.38 -0.92 0.85 -2.18 t0.96 -2.64 t0.96 -2.77 t0.87 -2.59 l3.32 0 q-0.46 1.32 -1.06 3 t-1.32 3.52 t-1.52 3.72 t-1.62 3.62 l-3 0 z M53.14 6.140000000000001 l3.12 0 l0 13.86 l-3.12 0 l0 -13.86 z M65.78 20.28 q-3.38 0 -5.15 -1.88 t-1.77 -5.34 q0 -1.72 0.54 -3.07 t1.48 -2.28 t2.24 -1.41 t2.82 -0.48 q0.88 0 1.6 0.13 t1.26 0.3 t0.9 0.35 t0.52 0.28 l-0.9 2.52 q-0.64 -0.34 -1.49 -0.58 t-1.93 -0.24 q-0.72 0 -1.41 0.24 t-1.22 0.77 t-0.85 1.37 t-0.32 2.04 q0 0.96 0.21 1.79 t0.68 1.43 t1.23 0.95 t1.84 0.35 q0.68 0 1.22 -0.08 t0.96 -0.19 t0.74 -0.25 t0.58 -0.26 l0.86 2.5 q-0.66 0.4 -1.86 0.72 t-2.78 0.32 z M72.41999999999999 20 l0 -13.86 l9.36 0 l0 2.62 l-6.24 0 l0 2.72 l5.54 0 l0 2.56 l-5.54 0 l0 3.34 l6.7 0 l0 2.62 l-9.82 0 z M88.32 17.62 q0.66 0 1.09 -0.11 t0.69 -0.3 t0.36 -0.45 t0.1 -0.58 q0 -0.68 -0.64 -1.13 t-2.2 -0.97 q-0.68 -0.24 -1.36 -0.55 t-1.22 -0.78 t-0.88 -1.14 t-0.34 -1.63 t0.36 -1.73 t1.02 -1.31 t1.6 -0.83 t2.12 -0.29 q1.4 0 2.42 0.3 t1.68 0.66 l-0.9 2.46 q-0.58 -0.3 -1.29 -0.53 t-1.71 -0.23 q-1.12 0 -1.61 0.31 t-0.49 0.95 q0 0.38 0.18 0.64 t0.51 0.47 t0.76 0.38 t0.95 0.35 q1.08 0.4 1.88 0.79 t1.33 0.91 t0.79 1.22 t0.26 1.7 q0 1.94 -1.36 3.01 t-4.1 1.07 q-0.92 0 -1.66 -0.11 t-1.31 -0.27 t-0.98 -0.34 t-0.69 -0.34 l0.88 -2.48 q0.62 0.34 1.53 0.61 t2.23 0.27 z"></path></g>
			</g>
		</svg>
	